<svg width="20" height="21" viewBox="0 0 20 21" fill="none" xmlns="http://www.w3.org/2000/svg">
<path d="M4.09013 14.9886L3.95609 15.2805L4.1658 15.5238C5.57709 17.1608 7.66765 18.1984 10 18.1984C12.3323 18.1984 14.4228 17.1609 15.8341 15.5239L16.0438 15.2806L15.9098 14.9887C14.8831 12.7528 12.6235 11.1984 9.99994 11.1984C7.37637 11.1984 5.11689 12.7528 4.09013 14.9886ZM19.1 10.4984C19.1 15.5242 15.0258 19.5984 10 19.5984C4.97423 19.5984 0.900024 15.5242 0.900024 10.4984C0.900024 5.47265 4.97423 1.39844 10 1.39844C15.0258 1.39844 19.1 5.47265 19.1 10.4984ZM10 9.79844C11.6016 9.79844 12.9 8.50006 12.9 6.89844C12.9 5.29681 11.6016 3.99844 10 3.99844C8.3984 3.99844 7.10002 5.29681 7.10002 6.89844C7.10002 8.50006 8.3984 9.79844 10 9.79844Z" fill="#6C61E1" stroke="#6C61E1"/>
</svg>
