<svg width="20" height="21" viewBox="0 0 20 21" fill="none" xmlns="http://www.w3.org/2000/svg">
<path d="M13 5.5C14.1046 5.5 15 6.39543 15 7.5M19 7.5C19 10.8137 16.3137 13.5 13 13.5C12.3938 13.5 11.8087 13.4101 11.2571 13.2429L9 15.5H7V17.5H5V19.5H2C1.44772 19.5 1 19.0523 1 18.5V15.9142C1 15.649 1.10536 15.3946 1.29289 15.2071L7.25707 9.24293C7.08989 8.69135 7 8.10617 7 7.5C7 4.18629 9.68629 1.5 13 1.5C16.3137 1.5 19 4.18629 19 7.5Z" stroke="#19191B" stroke-width="2" stroke-linecap="round" stroke-linejoin="round"/>
</svg>
