<svg width="1440" height="130" viewBox="0 0 1440 130" fill="none" xmlns="http://www.w3.org/2000/svg">
<mask id="path-1-inside-1_2613_16188" fill="white">
<path d="M0 0H1440V130H0V0Z"/>
</mask>
<path d="M0 0H1440V130H0V0Z" fill="white"/>
<path d="M732.193 81.5473C734.786 82.4377 737.484 80.5112 737.484 77.7698V59.0945C737.484 57.3461 736.347 55.8009 734.678 55.2811L702.584 45.2871C700.013 44.4865 697.402 46.4077 697.402 49.1006L697.402 66.7488C697.402 68.4547 698.486 69.9723 700.099 70.5263L732.193 81.5473Z" fill="#877EE7"/>
<path d="M737.233 44.3857C739.839 43.4336 742.598 45.3628 742.598 48.1372V65.9094C742.598 67.554 741.59 69.0304 740.058 69.6293L710.376 81.2341C707.757 82.2582 704.928 80.3266 704.928 77.5143L704.928 58.9825C704.928 57.3053 705.976 55.8067 707.551 55.2311L737.233 44.3857Z" fill="#6C61E1"/>
<path d="M704.891 83.8271C704.891 84.6566 705.844 85.1244 706.5 84.6172L713.56 79.1619C714.313 78.5796 713.902 77.3733 712.949 77.3733H705.889C705.338 77.3733 704.891 77.8203 704.891 78.3718V83.8271Z" fill="#6C61E1"/>
<rect x="710.415" y="60.3845" width="28.2105" height="1.99702" rx="0.998508" transform="rotate(-19.6593 710.415 60.3845)" fill="white"/>
<rect x="711.641" y="65.8301" width="28.2105" height="1.99702" rx="0.998508" transform="rotate(-19.6593 711.641 65.8301)" fill="white"/>
<path d="M1440 129H0V131H1440V129Z" fill="#CACACE" mask="url(#path-1-inside-1_2613_16188)"/>
</svg>
