<svg width="100" height="100" viewBox="0 0 100 100" fill="none" xmlns="http://www.w3.org/2000/svg">
<path d="M22.299 38.6188V38.618C22.299 23.3201 34.6952 10.917 50 10.917C65.3048 10.917 77.701 23.3201 77.701 38.618V38.6187C77.7097 44.6605 75.7337 50.5379 72.077 55.3474L72.0578 55.3726L72.042 55.4L54.32 86.098L54.3024 86.1284L54.2893 86.161C54.1408 86.529 53.9317 86.8716 53.6844 87.2052L53.6673 87.2282L53.653 87.253L53.6427 87.2707L53.48 87.461C52.6335 88.4509 51.4122 89.085 50.015 89.085L50.0129 89.085C49.285 89.0881 48.5669 88.917 47.9186 88.5861C47.2703 88.2551 46.7106 87.7738 46.2862 87.1825L46.1723 87.0237C46.0921 86.8958 46.0179 86.7545 45.9336 86.5924L45.9285 86.5826L45.923 86.573L27.834 55.241L27.8191 55.2152L27.8012 55.1913C24.2202 50.4091 22.2893 44.5932 22.299 38.6188ZM35.326 39.02C35.326 46.9701 41.7678 53.415 49.721 53.415C57.6742 53.415 64.116 46.969 64.116 39.02C64.116 31.0709 57.6742 24.625 49.721 24.625C41.7678 24.625 35.326 31.0709 35.326 39.02Z" fill="#666475" stroke="white"/>
</svg>
