<svg width="34" height="34" viewBox="0 0 34 34" fill="none" xmlns="http://www.w3.org/2000/svg">
<g clip-path="url(#clip0_7301_44734)">
<path d="M24.2198 13.1936L20.3896 16.4076C19.5316 17.1275 18.9727 18.0794 18.7342 19.102L14.8775 14.5057C15.9541 14.4509 16.9758 14.0505 17.8184 13.3434L21.6486 10.1295L24.2198 13.1936ZM27.6802 14.2062L21.2524 6.54576C20.8988 6.12444 20.2649 6.06897 19.8435 6.4225C19.4222 6.77604 19.3668 7.41001 19.7203 7.83134L20.3631 8.59738L16.5328 11.8113C15.2612 12.8783 13.3734 12.7132 12.3064 11.4415L10.7743 12.7271L14.6117 17.3004L9.24939 21.7999L9.12614 23.2088L10.535 23.332L15.8973 18.8325L19.7733 23.4517L21.3054 22.1662C20.2384 20.8945 20.4035 19.0067 21.6751 17.9397L25.5054 14.7257L26.1482 15.4918C26.5017 15.9131 27.1357 15.9686 27.557 15.615C27.9783 15.2615 28.0338 14.6275 27.6802 14.2062Z" fill="#19191B"/>
</g>
<rect x="21.0059" y="9.36328" width="6" height="8" transform="rotate(50 21.0059 9.36328)" fill="#19191B"/>
<defs>
<clipPath id="clip0_7301_44734">
<rect width="24" height="24" fill="white" transform="translate(18.2852 -0.101562) rotate(50)"/>
</clipPath>
</defs>
</svg>
