<svg width="18" height="18" viewBox="0 0 18 18" fill="none" xmlns="http://www.w3.org/2000/svg">
<circle cx="11.2157" cy="11.4043" r="5.71877" fill="#FFCE29" stroke="#FFA500" stroke-width="1.42969"/>
<circle cx="7.76468" cy="8.64371" r="6.90196" fill="#FFCE29" stroke="#FFA500" stroke-width="1.72549"/>
<mask id="path-3-inside-1_3458_388" fill="white">
<path d="M1.35886 11.1415C0.901397 11.3199 0.380574 11.0944 0.255622 10.6196C-0.00647809 9.62351 -0.0685513 8.58225 0.0764665 7.55658C0.263104 6.23655 0.786474 4.9868 1.59617 3.9277C2.40587 2.86859 3.47463 2.0358 4.69952 1.50952C5.65126 1.1006 6.67236 0.887436 7.70228 0.879155C8.19327 0.875207 8.54749 1.31866 8.49532 1.80689C8.44314 2.29513 8.00363 2.64167 7.51305 2.66231C6.78826 2.69281 6.07249 2.85491 5.40145 3.14323C4.45706 3.54899 3.63305 4.19107 3.00877 5.00764C2.38449 5.82421 1.98097 6.78777 1.83707 7.80551C1.73483 8.52868 1.76611 9.2619 1.92675 9.96933C2.03548 10.4482 1.81632 10.9632 1.35886 11.1415Z"/>
</mask>
<path d="M1.35886 11.1415C0.901397 11.3199 0.380574 11.0944 0.255622 10.6196C-0.00647809 9.62351 -0.0685513 8.58225 0.0764665 7.55658C0.263104 6.23655 0.786474 4.9868 1.59617 3.9277C2.40587 2.86859 3.47463 2.0358 4.69952 1.50952C5.65126 1.1006 6.67236 0.887436 7.70228 0.879155C8.19327 0.875207 8.54749 1.31866 8.49532 1.80689C8.44314 2.29513 8.00363 2.64167 7.51305 2.66231C6.78826 2.69281 6.07249 2.85491 5.40145 3.14323C4.45706 3.54899 3.63305 4.19107 3.00877 5.00764C2.38449 5.82421 1.98097 6.78777 1.83707 7.80551C1.73483 8.52868 1.76611 9.2619 1.92675 9.96933C2.03548 10.4482 1.81632 10.9632 1.35886 11.1415Z" stroke="#FFC04C" stroke-width="3.88235" mask="url(#path-3-inside-1_3458_388)"/>
<mask id="path-4-inside-2_3458_388" fill="white">
<path d="M14.4181 6.76155C14.8699 6.63373 15.3448 6.89619 15.4225 7.35929C15.595 8.388 15.559 9.44396 15.3131 10.4636C15.0006 11.7596 14.3597 12.9534 13.4521 13.9299C12.5444 14.9064 11.4007 15.6327 10.1309 16.039C9.13194 16.3586 8.08143 16.4717 7.04287 16.3747C6.57533 16.331 6.27891 15.8766 6.3734 15.4167C6.46789 14.9567 6.91793 14.6668 7.38659 14.696C8.13692 14.7429 8.89199 14.65 9.61273 14.4194C10.6044 14.1021 11.4977 13.5348 12.2065 12.7722C12.9154 12.0095 13.4159 11.0772 13.66 10.065C13.8374 9.32939 13.8749 8.56955 13.7734 7.82464C13.71 7.35937 13.9663 6.88936 14.4181 6.76155Z"/>
</mask>
<path d="M14.4181 6.76155C14.8699 6.63373 15.3448 6.89619 15.4225 7.35929C15.595 8.388 15.559 9.44396 15.3131 10.4636C15.0006 11.7596 14.3597 12.9534 13.4521 13.9299C12.5444 14.9064 11.4007 15.6327 10.1309 16.039C9.13194 16.3586 8.08143 16.4717 7.04287 16.3747C6.57533 16.331 6.27891 15.8766 6.3734 15.4167C6.46789 14.9567 6.91793 14.6668 7.38659 14.696C8.13692 14.7429 8.89199 14.65 9.61273 14.4194C10.6044 14.1021 11.4977 13.5348 12.2065 12.7722C12.9154 12.0095 13.4159 11.0772 13.66 10.065C13.8374 9.32939 13.8749 8.56955 13.7734 7.82464C13.71 7.35937 13.9663 6.88936 14.4181 6.76155Z" fill="#D9D9D9" stroke="#D98C00" stroke-width="3.88235" mask="url(#path-4-inside-2_3458_388)"/>
<circle cx="7.76468" cy="8.64371" r="6.03922" fill="#FFCE29"/>
<path d="M7.07161 5.63881C7.29517 5.2248 7.88916 5.2248 8.11272 5.63881L8.74008 6.80062C8.82534 6.95851 8.97765 7.06917 9.15416 7.10147L10.453 7.33911C10.9158 7.42379 11.0994 7.9887 10.7747 8.32926L9.86361 9.28493C9.73979 9.41481 9.68162 9.59386 9.70545 9.77171L9.88079 11.0804C9.94328 11.5467 9.46273 11.8959 9.03852 11.6923L7.84808 11.1212C7.6863 11.0435 7.49803 11.0435 7.33625 11.1212L6.14581 11.6923C5.7216 11.8959 5.24105 11.5467 5.30354 11.0804L5.47888 9.77171C5.50271 9.59386 5.44454 9.41481 5.32072 9.28493L4.40964 8.32926C4.08498 7.9887 4.26853 7.42379 4.73136 7.33911L6.03017 7.10147C6.20668 7.06917 6.35899 6.95851 6.44425 6.80062L7.07161 5.63881Z" fill="#FFA500"/>
<mask id="path-7-inside-3_3458_388" fill="white">
<path d="M1.69023 6.99043C1.41695 6.92804 1.24402 6.65512 1.32791 6.38765C1.55158 5.67455 1.89914 5.00496 2.3559 4.41012C2.81266 3.81528 3.36983 3.30664 4.00101 2.90646C4.23775 2.75636 4.54607 2.85297 4.67689 3.10088C4.80772 3.3488 4.71119 3.65386 4.47674 3.8075C3.97378 4.13708 3.52872 4.54951 3.16103 5.02836C2.79334 5.5072 2.50979 6.04364 2.32122 6.61464C2.23331 6.88081 1.96351 7.05282 1.69023 6.99043Z"/>
</mask>
<path d="M1.69023 6.99043C1.41695 6.92804 1.24402 6.65512 1.32791 6.38765C1.55158 5.67455 1.89914 5.00496 2.3559 4.41012C2.81266 3.81528 3.36983 3.30664 4.00101 2.90646C4.23775 2.75636 4.54607 2.85297 4.67689 3.10088C4.80772 3.3488 4.71119 3.65386 4.47674 3.8075C3.97378 4.13708 3.52872 4.54951 3.16103 5.02836C2.79334 5.5072 2.50979 6.04364 2.32122 6.61464C2.23331 6.88081 1.96351 7.05282 1.69023 6.99043Z" fill="white" stroke="white" stroke-width="0.690196" stroke-linejoin="round" mask="url(#path-7-inside-3_3458_388)"/>
</svg>
