<svg width="22" height="22" viewBox="0 0 22 22" fill="none" xmlns="http://www.w3.org/2000/svg">
<path d="M1.14635 10.2732H3.26824C4.47323 10.2732 5.45006 11.25 5.45006 12.455V13.5459C5.45006 14.7509 6.42689 15.7277 7.63188 15.7277C8.83686 15.7277 9.81369 16.7045 9.81369 17.9095V21.1223M6.54097 2.56646V4.27317C6.54097 5.7794 7.76201 7.00044 9.26824 7.00044H9.81369C11.0187 7.00044 11.9955 7.97727 11.9955 9.18226C11.9955 10.3872 12.9723 11.3641 14.1773 11.3641C15.3823 11.3641 16.3591 10.3872 16.3591 9.18226C16.3591 7.97727 17.336 7.00044 18.541 7.00044L19.7022 7.00044M14.1773 20.6236V17.9095C14.1773 16.7045 15.1542 15.7277 16.3591 15.7277H19.7022M20.7228 11.3641C20.7228 16.7865 16.327 21.1823 10.9046 21.1823C5.48217 21.1823 1.08643 16.7865 1.08643 11.3641C1.08643 5.94165 5.48217 1.5459 10.9046 1.5459C16.327 1.5459 20.7228 5.94165 20.7228 11.3641Z" stroke="#19191A" stroke-width="1.45454" stroke-linecap="round" stroke-linejoin="round"/>
</svg>
