<svg width="34" height="28" viewBox="0 0 34 28" fill="none" xmlns="http://www.w3.org/2000/svg">
<path d="M24.5 26H32V23C32 20.5147 29.9853 18.5 27.5 18.5C26.0666 18.5 24.7897 19.1702 23.9656 20.2143M24.5 26H9.5M24.5 26V23C24.5 22.0156 24.3104 21.0756 23.9656 20.2143M9.5 26H2V23C2 20.5147 4.01472 18.5 6.5 18.5C7.93341 18.5 9.21029 19.1702 10.0344 20.2143M9.5 26V23C9.5 22.0156 9.68964 21.0756 10.0344 20.2143M10.0344 20.2143C11.1403 17.4515 13.8422 15.5 17 15.5C20.1578 15.5 22.8597 17.4515 23.9656 20.2143M21.5 6.5C21.5 8.98528 19.4853 11 17 11C14.5147 11 12.5 8.98528 12.5 6.5C12.5 4.01472 14.5147 2 17 2C19.4853 2 21.5 4.01472 21.5 6.5ZM30.5 11C30.5 12.6569 29.1569 14 27.5 14C25.8431 14 24.5 12.6569 24.5 11C24.5 9.34315 25.8431 8 27.5 8C29.1569 8 30.5 9.34315 30.5 11ZM9.5 11C9.5 12.6569 8.15685 14 6.5 14C4.84315 14 3.5 12.6569 3.5 11C3.5 9.34315 4.84315 8 6.5 8C8.15685 8 9.5 9.34315 9.5 11Z" stroke="#111826" stroke-width="3" stroke-linecap="round" stroke-linejoin="round"/>
</svg>
